%TF.GenerationSoftware,KiCad,Pcbnew,(5.1.10)-1*%
%TF.CreationDate,2022-01-27T09:42:42-08:00*%
%TF.ProjectId,Hive PCB v0.1,48697665-2050-4434-9220-76302e312e6b,rev?*%
%TF.SameCoordinates,Original*%
%TF.FileFunction,Copper,L2,Bot*%
%TF.FilePolarity,Positive*%
%FSLAX46Y46*%
G04 Gerber Fmt 4.6, Leading zero omitted, Abs format (unit mm)*
G04 Created by KiCad (PCBNEW (5.1.10)-1) date 2022-01-27 09:42:42*
%MOMM*%
%LPD*%
G01*
G04 APERTURE LIST*
%TA.AperFunction,ComponentPad*%
%ADD10O,1.050000X1.900000*%
%TD*%
%TA.AperFunction,ViaPad*%
%ADD11C,0.800000*%
%TD*%
%TA.AperFunction,Conductor*%
%ADD12C,0.250000*%
%TD*%
%TA.AperFunction,Conductor*%
%ADD13C,0.508000*%
%TD*%
G04 APERTURE END LIST*
D10*
%TO.P,J1,6*%
%TO.N,Net-(C16-Pad2)*%
X143275000Y-142043000D03*
X136125000Y-142043000D03*
%TD*%
D11*
%TO.N,SCK*%
X148590000Y-91440000D03*
X121920000Y-118110000D03*
%TO.N,GND*%
X119380000Y-124460000D03*
X115570000Y-124460000D03*
X140970000Y-133350000D03*
X130810000Y-134620000D03*
X104140000Y-102870000D03*
X104140000Y-113030000D03*
X107950000Y-82550000D03*
X118110000Y-67310000D03*
X127000000Y-71120000D03*
X134620000Y-64770000D03*
X168910000Y-78740000D03*
X171450000Y-76200000D03*
X177800000Y-95250000D03*
X170180000Y-95250000D03*
X113030000Y-90170000D03*
X113030000Y-93980000D03*
X173990000Y-120650000D03*
X171450000Y-118110000D03*
%TO.N,IRQ_DWM1000*%
X148590000Y-86360000D03*
X132080000Y-100330000D03*
%TO.N,RSTn_DWM1000*%
X130810000Y-88900000D03*
X129540000Y-100330000D03*
%TO.N,CS_DWM1000*%
X148590000Y-95250000D03*
X127000000Y-99060000D03*
%TO.N,MOSI*%
X148590000Y-93980000D03*
X124460000Y-99060000D03*
%TO.N,MISO*%
X148590000Y-92710000D03*
X121920000Y-99060000D03*
%TO.N,LED_DATA_H*%
X124228319Y-95481681D03*
X127000000Y-92710000D03*
X148590000Y-62230000D03*
%TO.N,Net-(D1-Pad2)*%
X147320000Y-69850000D03*
X167640000Y-72390000D03*
%TO.N,Net-(D2-Pad2)*%
X163830000Y-78740000D03*
X177800000Y-88900000D03*
%TO.N,Net-(D3-Pad2)*%
X171450000Y-96520000D03*
X177800000Y-107950000D03*
%TO.N,Net-(D4-Pad2)*%
X172720000Y-115570000D03*
X170180000Y-124460000D03*
%TO.N,Net-(D6-Pad2)*%
X144780000Y-138430000D03*
X134493231Y-136016769D03*
%TO.N,Net-(D10-Pad4)*%
X100330000Y-96520000D03*
X107950000Y-90170000D03*
%TO.N,Net-(D11-Pad2)*%
X110490000Y-80010000D03*
X130810000Y-62230000D03*
%TD*%
D12*
%TO.N,SCK*%
X149315001Y-92165001D02*
X149315001Y-95598001D01*
X148590000Y-91440000D02*
X149315001Y-92165001D01*
X147221501Y-97691501D02*
X133448499Y-97691501D01*
X149315001Y-95598001D02*
X147221501Y-97691501D01*
X147221501Y-97691501D02*
X147123002Y-97790000D01*
X133448499Y-97691501D02*
X131354999Y-99785001D01*
X131354999Y-99785001D02*
X130810000Y-100330000D01*
X130810000Y-100330000D02*
X121920000Y-109220000D01*
X121920000Y-109220000D02*
X121920000Y-118110000D01*
D13*
%TO.N,GND*%
X119380000Y-124460000D02*
X115570000Y-124460000D01*
X139700000Y-134620000D02*
X130810000Y-134620000D01*
X140970000Y-133350000D02*
X139700000Y-134620000D01*
X104140000Y-102870000D02*
X104140000Y-113030000D01*
X107950000Y-77470000D02*
X118110000Y-67310000D01*
X107950000Y-82550000D02*
X107950000Y-77470000D01*
X128270000Y-71120000D02*
X134620000Y-64770000D01*
X127000000Y-71120000D02*
X128270000Y-71120000D01*
X168910000Y-78740000D02*
X171450000Y-76200000D01*
X177800000Y-95250000D02*
X170180000Y-95250000D01*
X113030000Y-90170000D02*
X113030000Y-93980000D01*
X171450000Y-118110000D02*
X173990000Y-120650000D01*
D12*
%TO.N,IRQ_DWM1000*%
X145219412Y-100330000D02*
X132080000Y-100330000D01*
X149765010Y-95784402D02*
X145219412Y-100330000D01*
X149765010Y-87535010D02*
X149765010Y-95784402D01*
X148590000Y-86360000D02*
X149765010Y-87535010D01*
%TO.N,RSTn_DWM1000*%
X130810000Y-88900000D02*
X129540000Y-88900000D01*
X129540000Y-88900000D02*
X120650000Y-97790000D01*
X120650000Y-98863002D02*
X122116998Y-100330000D01*
X120650000Y-97790000D02*
X120650000Y-98863002D01*
X122116998Y-100330000D02*
X129540000Y-100330000D01*
%TO.N,CS_DWM1000*%
X148590000Y-95250000D02*
X147320000Y-96520000D01*
X147320000Y-96520000D02*
X129540000Y-96520000D01*
X129540000Y-96520000D02*
X127000000Y-99060000D01*
%TO.N,MOSI*%
X148590000Y-93980000D02*
X147320000Y-95250000D01*
X147320000Y-95250000D02*
X129540000Y-95250000D01*
X129540000Y-95250000D02*
X128270000Y-95250000D01*
X128270000Y-95250000D02*
X124460000Y-99060000D01*
%TO.N,MISO*%
X148590000Y-92710000D02*
X147320000Y-93980000D01*
X127000000Y-93980000D02*
X121920000Y-99060000D01*
X147320000Y-93980000D02*
X127000000Y-93980000D01*
%TO.N,LED_DATA_H*%
X124228319Y-95481681D02*
X127000000Y-92710000D01*
X128073002Y-92710000D02*
X131535001Y-89248001D01*
X127000000Y-92710000D02*
X128073002Y-92710000D01*
X131535001Y-89248001D02*
X131535001Y-88551999D01*
X147864999Y-62955001D02*
X148590000Y-62230000D01*
X117784990Y-85224626D02*
X117784990Y-73351420D01*
X117975374Y-85415010D02*
X117784990Y-85224626D01*
X128398012Y-85415010D02*
X117975374Y-85415010D01*
X131535001Y-88551999D02*
X128398012Y-85415010D01*
X117784990Y-73351420D02*
X127636410Y-63500000D01*
X127636410Y-63500000D02*
X147320000Y-63500000D01*
X147320000Y-63500000D02*
X147864999Y-62955001D01*
%TO.N,Net-(D1-Pad2)*%
X149860000Y-72390000D02*
X167640000Y-72390000D01*
X147320000Y-69850000D02*
X149860000Y-72390000D01*
%TO.N,Net-(D2-Pad2)*%
X173990000Y-88900000D02*
X177800000Y-88900000D01*
X163830000Y-78740000D02*
X173990000Y-88900000D01*
%TO.N,Net-(D3-Pad2)*%
X171450000Y-96520000D02*
X171450000Y-101600000D01*
X171450000Y-101600000D02*
X177800000Y-107950000D01*
%TO.N,Net-(D4-Pad2)*%
X170180000Y-118110000D02*
X170180000Y-124460000D01*
X172720000Y-115570000D02*
X170180000Y-118110000D01*
%TO.N,Net-(D6-Pad2)*%
X142366769Y-136016769D02*
X134493231Y-136016769D01*
X144780000Y-138430000D02*
X142366769Y-136016769D01*
%TO.N,Net-(D10-Pad4)*%
X100330000Y-96520000D02*
X101600000Y-96520000D01*
X101600000Y-96520000D02*
X107950000Y-90170000D01*
%TO.N,Net-(D11-Pad2)*%
X128270000Y-62230000D02*
X130810000Y-62230000D01*
X110490000Y-80010000D02*
X110490000Y-78740000D01*
X110490000Y-78740000D02*
X127000000Y-62230000D01*
X127000000Y-62230000D02*
X128270000Y-62230000D01*
%TD*%
M02*
