M48
; DRILL file {KiCad (5.1.10)-1} date 01/27/22 09:42:52
; FORMAT={-:-/ absolute / inch / decimal}
; #@! TF.CreationDate,2022-01-27T09:42:52-08:00
; #@! TF.GenerationSoftware,Kicad,Pcbnew,(5.1.10)-1
; #@! TF.FileFunction,Plated,1,2,PTH
FMAT,2
INCH
T1C0.0157
T2C0.0177
%
G90
G05
T1
X3.95Y-3.8
X4.1Y-4.05
X4.1Y-4.45
X4.25Y-3.25
X4.25Y-3.55
X4.35Y-3.15
X4.45Y-3.55
X4.45Y-3.7
X4.55Y-4.9
X4.65Y-2.65
X4.7Y-4.9
X4.8Y-3.9
X4.8Y-4.65
X4.8909Y-3.7591
X4.9Y-3.9
X5.0Y-2.8
X5.0Y-3.65
X5.0Y-3.9
X5.1Y-3.95
X5.15Y-2.45
X5.15Y-3.5
X5.15Y-5.3
X5.2Y-3.95
X5.295Y-5.355
X5.3Y-2.55
X5.55Y-5.25
X5.7Y-5.45
X5.8Y-2.75
X5.85Y-2.45
X5.85Y-3.4
X5.85Y-3.6
X5.85Y-3.65
X5.85Y-3.7
X5.85Y-3.75
X6.45Y-3.1
X6.6Y-2.85
X6.65Y-3.1
X6.7Y-3.75
X6.7Y-4.9
X6.75Y-3.0
X6.75Y-3.8
X6.75Y-4.65
X6.8Y-4.55
X6.85Y-4.75
X7.0Y-3.5
X7.0Y-3.75
X7.0Y-4.25
T2
G00X5.3593Y-5.608
M15
G01X5.3593Y-5.5765
M16
G05
G00X5.6407Y-5.5765
M15
G01X5.6407Y-5.608
M16
G05
T0
M30
