%TF.GenerationSoftware,KiCad,Pcbnew,(5.1.10)-1*%
%TF.CreationDate,2022-01-27T09:42:42-08:00*%
%TF.ProjectId,Hive PCB v0.1,48697665-2050-4434-9220-76302e312e6b,rev?*%
%TF.SameCoordinates,Original*%
%TF.FileFunction,Legend,Top*%
%TF.FilePolarity,Positive*%
%FSLAX46Y46*%
G04 Gerber Fmt 4.6, Leading zero omitted, Abs format (unit mm)*
G04 Created by KiCad (PCBNEW (5.1.10)-1) date 2022-01-27 09:42:42*
%MOMM*%
%LPD*%
G01*
G04 APERTURE LIST*
%ADD10C,0.150000*%
%ADD11C,0.254000*%
%ADD12C,0.120000*%
%ADD13C,0.200000*%
%ADD14C,0.127000*%
G04 APERTURE END LIST*
D10*
X109165238Y-88082380D02*
X109165238Y-87082380D01*
X109546190Y-87082380D01*
X109641428Y-87130000D01*
X109689047Y-87177619D01*
X109736666Y-87272857D01*
X109736666Y-87415714D01*
X109689047Y-87510952D01*
X109641428Y-87558571D01*
X109546190Y-87606190D01*
X109165238Y-87606190D01*
X110165238Y-88082380D02*
X110165238Y-87415714D01*
X110165238Y-87606190D02*
X110212857Y-87510952D01*
X110260476Y-87463333D01*
X110355714Y-87415714D01*
X110450952Y-87415714D01*
X110927142Y-88082380D02*
X110831904Y-88034761D01*
X110784285Y-87987142D01*
X110736666Y-87891904D01*
X110736666Y-87606190D01*
X110784285Y-87510952D01*
X110831904Y-87463333D01*
X110927142Y-87415714D01*
X111070000Y-87415714D01*
X111165238Y-87463333D01*
X111212857Y-87510952D01*
X111260476Y-87606190D01*
X111260476Y-87891904D01*
X111212857Y-87987142D01*
X111165238Y-88034761D01*
X111070000Y-88082380D01*
X110927142Y-88082380D01*
X111593809Y-88082380D02*
X112117619Y-87415714D01*
X111593809Y-87415714D02*
X112117619Y-88082380D01*
X112498571Y-88082380D02*
X112498571Y-87415714D01*
X112498571Y-87082380D02*
X112450952Y-87130000D01*
X112498571Y-87177619D01*
X112546190Y-87130000D01*
X112498571Y-87082380D01*
X112498571Y-87177619D01*
X112974761Y-88082380D02*
X112974761Y-87415714D01*
X112974761Y-87510952D02*
X113022380Y-87463333D01*
X113117619Y-87415714D01*
X113260476Y-87415714D01*
X113355714Y-87463333D01*
X113403333Y-87558571D01*
X113403333Y-88082380D01*
X113403333Y-87558571D02*
X113450952Y-87463333D01*
X113546190Y-87415714D01*
X113689047Y-87415714D01*
X113784285Y-87463333D01*
X113831904Y-87558571D01*
X113831904Y-88082380D01*
X114736666Y-88082380D02*
X114736666Y-87558571D01*
X114689047Y-87463333D01*
X114593809Y-87415714D01*
X114403333Y-87415714D01*
X114308095Y-87463333D01*
X114736666Y-88034761D02*
X114641428Y-88082380D01*
X114403333Y-88082380D01*
X114308095Y-88034761D01*
X114260476Y-87939523D01*
X114260476Y-87844285D01*
X114308095Y-87749047D01*
X114403333Y-87701428D01*
X114641428Y-87701428D01*
X114736666Y-87653809D01*
X115355714Y-88082380D02*
X115260476Y-88034761D01*
X115212857Y-87939523D01*
X115212857Y-87082380D01*
X116974761Y-88082380D02*
X116498571Y-88082380D01*
X116498571Y-87082380D01*
X117308095Y-88082380D02*
X117308095Y-87415714D01*
X117308095Y-87082380D02*
X117260476Y-87130000D01*
X117308095Y-87177619D01*
X117355714Y-87130000D01*
X117308095Y-87082380D01*
X117308095Y-87177619D01*
X118212857Y-87415714D02*
X118212857Y-88225238D01*
X118165238Y-88320476D01*
X118117619Y-88368095D01*
X118022380Y-88415714D01*
X117879523Y-88415714D01*
X117784285Y-88368095D01*
X118212857Y-88034761D02*
X118117619Y-88082380D01*
X117927142Y-88082380D01*
X117831904Y-88034761D01*
X117784285Y-87987142D01*
X117736666Y-87891904D01*
X117736666Y-87606190D01*
X117784285Y-87510952D01*
X117831904Y-87463333D01*
X117927142Y-87415714D01*
X118117619Y-87415714D01*
X118212857Y-87463333D01*
X118689047Y-88082380D02*
X118689047Y-87082380D01*
X119117619Y-88082380D02*
X119117619Y-87558571D01*
X119070000Y-87463333D01*
X118974761Y-87415714D01*
X118831904Y-87415714D01*
X118736666Y-87463333D01*
X118689047Y-87510952D01*
X119450952Y-87415714D02*
X119831904Y-87415714D01*
X119593809Y-87082380D02*
X119593809Y-87939523D01*
X119641428Y-88034761D01*
X119736666Y-88082380D01*
X119831904Y-88082380D01*
X120165238Y-88082380D02*
X120165238Y-87415714D01*
X120165238Y-87082380D02*
X120117619Y-87130000D01*
X120165238Y-87177619D01*
X120212857Y-87130000D01*
X120165238Y-87082380D01*
X120165238Y-87177619D01*
X120641428Y-87415714D02*
X120641428Y-88082380D01*
X120641428Y-87510952D02*
X120689047Y-87463333D01*
X120784285Y-87415714D01*
X120927142Y-87415714D01*
X121022380Y-87463333D01*
X121070000Y-87558571D01*
X121070000Y-88082380D01*
X121974761Y-87415714D02*
X121974761Y-88225238D01*
X121927142Y-88320476D01*
X121879523Y-88368095D01*
X121784285Y-88415714D01*
X121641428Y-88415714D01*
X121546190Y-88368095D01*
X121974761Y-88034761D02*
X121879523Y-88082380D01*
X121689047Y-88082380D01*
X121593809Y-88034761D01*
X121546190Y-87987142D01*
X121498571Y-87891904D01*
X121498571Y-87606190D01*
X121546190Y-87510952D01*
X121593809Y-87463333D01*
X121689047Y-87415714D01*
X121879523Y-87415714D01*
X121974761Y-87463333D01*
D11*
X108923666Y-85894333D02*
X108923666Y-84116333D01*
X108923666Y-84963000D02*
X109939666Y-84963000D01*
X109939666Y-85894333D02*
X109939666Y-84116333D01*
X110786333Y-85894333D02*
X110786333Y-84709000D01*
X110786333Y-84116333D02*
X110701666Y-84201000D01*
X110786333Y-84285666D01*
X110871000Y-84201000D01*
X110786333Y-84116333D01*
X110786333Y-84285666D01*
X111463666Y-84709000D02*
X111887000Y-85894333D01*
X112310333Y-84709000D01*
X113665000Y-85809666D02*
X113495666Y-85894333D01*
X113157000Y-85894333D01*
X112987666Y-85809666D01*
X112903000Y-85640333D01*
X112903000Y-84963000D01*
X112987666Y-84793666D01*
X113157000Y-84709000D01*
X113495666Y-84709000D01*
X113665000Y-84793666D01*
X113749666Y-84963000D01*
X113749666Y-85132333D01*
X112903000Y-85301666D01*
X115866333Y-85894333D02*
X115866333Y-84116333D01*
X116543666Y-84116333D01*
X116713000Y-84201000D01*
X116797666Y-84285666D01*
X116882333Y-84455000D01*
X116882333Y-84709000D01*
X116797666Y-84878333D01*
X116713000Y-84963000D01*
X116543666Y-85047666D01*
X115866333Y-85047666D01*
X118660333Y-85725000D02*
X118575666Y-85809666D01*
X118321666Y-85894333D01*
X118152333Y-85894333D01*
X117898333Y-85809666D01*
X117729000Y-85640333D01*
X117644333Y-85471000D01*
X117559666Y-85132333D01*
X117559666Y-84878333D01*
X117644333Y-84539666D01*
X117729000Y-84370333D01*
X117898333Y-84201000D01*
X118152333Y-84116333D01*
X118321666Y-84116333D01*
X118575666Y-84201000D01*
X118660333Y-84285666D01*
X120015000Y-84963000D02*
X120269000Y-85047666D01*
X120353666Y-85132333D01*
X120438333Y-85301666D01*
X120438333Y-85555666D01*
X120353666Y-85725000D01*
X120269000Y-85809666D01*
X120099666Y-85894333D01*
X119422333Y-85894333D01*
X119422333Y-84116333D01*
X120015000Y-84116333D01*
X120184333Y-84201000D01*
X120269000Y-84285666D01*
X120353666Y-84455000D01*
X120353666Y-84624333D01*
X120269000Y-84793666D01*
X120184333Y-84878333D01*
X120015000Y-84963000D01*
X119422333Y-84963000D01*
X122385666Y-84709000D02*
X122809000Y-85894333D01*
X123232333Y-84709000D01*
X124248333Y-84116333D02*
X124417666Y-84116333D01*
X124587000Y-84201000D01*
X124671666Y-84285666D01*
X124756333Y-84455000D01*
X124841000Y-84793666D01*
X124841000Y-85217000D01*
X124756333Y-85555666D01*
X124671666Y-85725000D01*
X124587000Y-85809666D01*
X124417666Y-85894333D01*
X124248333Y-85894333D01*
X124079000Y-85809666D01*
X123994333Y-85725000D01*
X123909666Y-85555666D01*
X123825000Y-85217000D01*
X123825000Y-84793666D01*
X123909666Y-84455000D01*
X123994333Y-84285666D01*
X124079000Y-84201000D01*
X124248333Y-84116333D01*
X125603000Y-85725000D02*
X125687666Y-85809666D01*
X125603000Y-85894333D01*
X125518333Y-85809666D01*
X125603000Y-85725000D01*
X125603000Y-85894333D01*
X127381000Y-85894333D02*
X126365000Y-85894333D01*
X126873000Y-85894333D02*
X126873000Y-84116333D01*
X126703666Y-84370333D01*
X126534333Y-84539666D01*
X126365000Y-84624333D01*
D10*
%TO.C,UWB_Module*%
X132950000Y-74610000D02*
X132950000Y-84610000D01*
X146450000Y-74610000D02*
X146450000Y-84610000D01*
X132950000Y-74610000D02*
X146450000Y-74610000D01*
X146450000Y-98110000D02*
X146450000Y-96360000D01*
X145700000Y-98110000D02*
X146450000Y-98110000D01*
X132950000Y-98110000D02*
X132950000Y-96360000D01*
X133700000Y-98110000D02*
X132950000Y-98110000D01*
D12*
%TO.C,JP2*%
X151620000Y-124730000D02*
X155720000Y-124730000D01*
X155720000Y-124730000D02*
X155720000Y-126730000D01*
X155720000Y-126730000D02*
X151620000Y-126730000D01*
X151620000Y-126730000D02*
X151620000Y-124730000D01*
%TO.C,JP1*%
X123680000Y-124730000D02*
X127780000Y-124730000D01*
X127780000Y-124730000D02*
X127780000Y-126730000D01*
X127780000Y-126730000D02*
X123680000Y-126730000D01*
X123680000Y-126730000D02*
X123680000Y-124730000D01*
D13*
%TO.C,Arduino_Nano_33*%
X119970000Y-121160000D02*
G75*
G03*
X119970000Y-121160000I-100000J0D01*
G01*
D14*
X117700000Y-102870000D02*
X117700000Y-120650000D01*
X161700000Y-120650000D02*
X161700000Y-102870000D01*
D12*
%TO.C,C1*%
X149015052Y-70385000D02*
X149537556Y-70385000D01*
X149015052Y-71855000D02*
X149537556Y-71855000D01*
%TO.C,C2*%
X162531248Y-69622050D02*
X163053752Y-69622050D01*
X162531248Y-71092050D02*
X163053752Y-71092050D01*
%TO.C,C3*%
X175088003Y-87348696D02*
X175610507Y-87348696D01*
X175088003Y-85878696D02*
X175610507Y-85878696D01*
%TO.C,C4*%
X175178003Y-105361304D02*
X175700507Y-105361304D01*
X175178003Y-106831304D02*
X175700507Y-106831304D01*
%TO.C,C5*%
X165511698Y-123087950D02*
X166034202Y-123087950D01*
X165511698Y-121617950D02*
X166034202Y-121617950D01*
%TO.C,C6*%
X148925052Y-131194255D02*
X149447556Y-131194255D01*
X148925052Y-132664255D02*
X149447556Y-132664255D01*
%TO.C,C7*%
X129577123Y-131231328D02*
X130099627Y-131231328D01*
X129577123Y-132701328D02*
X130099627Y-132701328D01*
%TO.C,C8*%
X113275798Y-123417950D02*
X113798302Y-123417950D01*
X113275798Y-121947950D02*
X113798302Y-121947950D01*
%TO.C,C9*%
X103841993Y-106501304D02*
X104364497Y-106501304D01*
X103841993Y-105031304D02*
X104364497Y-105031304D01*
%TO.C,C10*%
X103609493Y-85878696D02*
X104131997Y-85878696D01*
X103609493Y-87348696D02*
X104131997Y-87348696D01*
%TO.C,C11*%
X116811248Y-70585000D02*
X117333752Y-70585000D01*
X116811248Y-69115000D02*
X117333752Y-69115000D01*
%TO.C,C12*%
X129862444Y-70385000D02*
X130384948Y-70385000D01*
X129862444Y-71855000D02*
X130384948Y-71855000D01*
%TO.C,C13*%
X159758748Y-89435000D02*
X160281252Y-89435000D01*
X159758748Y-90905000D02*
X160281252Y-90905000D01*
%TO.C,C14*%
X157218748Y-97055000D02*
X157741252Y-97055000D01*
X157218748Y-98525000D02*
X157741252Y-98525000D01*
%TO.C,C15*%
X162298748Y-97055000D02*
X162821252Y-97055000D01*
X162298748Y-98525000D02*
X162821252Y-98525000D01*
%TO.C,C16*%
X139438748Y-136625000D02*
X139961252Y-136625000D01*
X139438748Y-135155000D02*
X139961252Y-135155000D01*
%TO.C,D1*%
X152926304Y-68610745D02*
X152926304Y-67460745D01*
X145626304Y-68610745D02*
X152926304Y-68610745D01*
X145626304Y-63110745D02*
X152926304Y-63110745D01*
%TO.C,D2*%
X162212950Y-72687050D02*
X169512950Y-72687050D01*
X162212950Y-78187050D02*
X169512950Y-78187050D01*
X169512950Y-78187050D02*
X169512950Y-77037050D01*
%TO.C,D3*%
X179089255Y-94773696D02*
X179089255Y-93623696D01*
X171789255Y-94773696D02*
X179089255Y-94773696D01*
X171789255Y-89273696D02*
X179089255Y-89273696D01*
%TO.C,D4*%
X171789255Y-108426304D02*
X179089255Y-108426304D01*
X171789255Y-113926304D02*
X179089255Y-113926304D01*
X179089255Y-113926304D02*
X179089255Y-112776304D01*
%TO.C,D5*%
X169512950Y-130512950D02*
X169512950Y-129362950D01*
X162212950Y-130512950D02*
X169512950Y-130512950D01*
X162212950Y-125012950D02*
X169512950Y-125012950D01*
%TO.C,D6*%
X145626304Y-134589255D02*
X152926304Y-134589255D01*
X145626304Y-140089255D02*
X152926304Y-140089255D01*
X152926304Y-140089255D02*
X152926304Y-138939255D01*
%TO.C,D7*%
X126278375Y-134626328D02*
X133578375Y-134626328D01*
X126278375Y-140126328D02*
X133578375Y-140126328D01*
X133578375Y-140126328D02*
X133578375Y-138976328D01*
%TO.C,D8*%
X117187050Y-130512950D02*
X117187050Y-129362950D01*
X109887050Y-130512950D02*
X117187050Y-130512950D01*
X109887050Y-125012950D02*
X117187050Y-125012950D01*
%TO.C,D9*%
X100310745Y-108426304D02*
X107610745Y-108426304D01*
X100310745Y-113926304D02*
X107610745Y-113926304D01*
X107610745Y-113926304D02*
X107610745Y-112776304D01*
%TO.C,D10*%
X100310745Y-89273696D02*
X107610745Y-89273696D01*
X100310745Y-94773696D02*
X107610745Y-94773696D01*
X107610745Y-94773696D02*
X107610745Y-93623696D01*
%TO.C,D11*%
X117187050Y-78187050D02*
X117187050Y-77037050D01*
X109887050Y-78187050D02*
X117187050Y-78187050D01*
X109887050Y-72687050D02*
X117187050Y-72687050D01*
%TO.C,D12*%
X126473696Y-63110745D02*
X133773696Y-63110745D01*
X126473696Y-68610745D02*
X133773696Y-68610745D01*
X133773696Y-68610745D02*
X133773696Y-67460745D01*
%TO.C,J1*%
X137940000Y-138433000D02*
X137940000Y-138823000D01*
X137940000Y-138433000D02*
X138390000Y-138433000D01*
X143510000Y-139133000D02*
X142860000Y-139133000D01*
X143510000Y-140863000D02*
X143510000Y-139133000D01*
X135890000Y-143433000D02*
X135890000Y-143223000D01*
X143510000Y-143433000D02*
X143510000Y-143223000D01*
X135890000Y-140863000D02*
X135890000Y-139133000D01*
X135890000Y-139133000D02*
X136550000Y-139133000D01*
%TO.C,L1*%
X151150000Y-94140000D02*
X153650000Y-94140000D01*
X153650000Y-96360000D02*
X151150000Y-96360000D01*
%TO.C,Q1*%
X122680000Y-96830000D02*
X121220000Y-96830000D01*
X122680000Y-93670000D02*
X120520000Y-93670000D01*
X122680000Y-93670000D02*
X122680000Y-94600000D01*
X122680000Y-96830000D02*
X122680000Y-95900000D01*
%TO.C,R1*%
X149902936Y-89635000D02*
X150357064Y-89635000D01*
X149902936Y-88165000D02*
X150357064Y-88165000D01*
%TO.C,R2*%
X167412936Y-93245000D02*
X167867064Y-93245000D01*
X167412936Y-94715000D02*
X167867064Y-94715000D01*
%TO.C,R3*%
X167412936Y-98525000D02*
X167867064Y-98525000D01*
X167412936Y-97055000D02*
X167867064Y-97055000D01*
%TO.C,R4*%
X116882936Y-94715000D02*
X117337064Y-94715000D01*
X116882936Y-93245000D02*
X117337064Y-93245000D01*
%TO.C,R5*%
X126502936Y-93245000D02*
X126957064Y-93245000D01*
X126502936Y-94715000D02*
X126957064Y-94715000D01*
D13*
%TO.C,VREG1*%
X159670000Y-92505000D02*
X160370000Y-92505000D01*
X160370000Y-92505000D02*
X160370000Y-95455000D01*
X160370000Y-95455000D02*
X159670000Y-95455000D01*
X159670000Y-95455000D02*
X159670000Y-92505000D01*
X158120000Y-92480000D02*
X159320000Y-92480000D01*
%TO.C,UWB_Module*%
D10*
X150407619Y-75652857D02*
X149598095Y-75652857D01*
X149502857Y-75700476D01*
X149455238Y-75748095D01*
X149407619Y-75843333D01*
X149407619Y-76033809D01*
X149455238Y-76129047D01*
X149502857Y-76176666D01*
X149598095Y-76224285D01*
X150407619Y-76224285D01*
X150407619Y-76605238D02*
X149407619Y-76843333D01*
X150121904Y-77033809D01*
X149407619Y-77224285D01*
X150407619Y-77462380D01*
X149931428Y-78176666D02*
X149883809Y-78319523D01*
X149836190Y-78367142D01*
X149740952Y-78414761D01*
X149598095Y-78414761D01*
X149502857Y-78367142D01*
X149455238Y-78319523D01*
X149407619Y-78224285D01*
X149407619Y-77843333D01*
X150407619Y-77843333D01*
X150407619Y-78176666D01*
X150360000Y-78271904D01*
X150312380Y-78319523D01*
X150217142Y-78367142D01*
X150121904Y-78367142D01*
X150026666Y-78319523D01*
X149979047Y-78271904D01*
X149931428Y-78176666D01*
X149931428Y-77843333D01*
X149312380Y-78605238D02*
X149312380Y-79367142D01*
X149407619Y-79605238D02*
X150407619Y-79605238D01*
X149693333Y-79938571D01*
X150407619Y-80271904D01*
X149407619Y-80271904D01*
X149407619Y-80890952D02*
X149455238Y-80795714D01*
X149502857Y-80748095D01*
X149598095Y-80700476D01*
X149883809Y-80700476D01*
X149979047Y-80748095D01*
X150026666Y-80795714D01*
X150074285Y-80890952D01*
X150074285Y-81033809D01*
X150026666Y-81129047D01*
X149979047Y-81176666D01*
X149883809Y-81224285D01*
X149598095Y-81224285D01*
X149502857Y-81176666D01*
X149455238Y-81129047D01*
X149407619Y-81033809D01*
X149407619Y-80890952D01*
X149407619Y-82081428D02*
X150407619Y-82081428D01*
X149455238Y-82081428D02*
X149407619Y-81986190D01*
X149407619Y-81795714D01*
X149455238Y-81700476D01*
X149502857Y-81652857D01*
X149598095Y-81605238D01*
X149883809Y-81605238D01*
X149979047Y-81652857D01*
X150026666Y-81700476D01*
X150074285Y-81795714D01*
X150074285Y-81986190D01*
X150026666Y-82081428D01*
X150074285Y-82986190D02*
X149407619Y-82986190D01*
X150074285Y-82557619D02*
X149550476Y-82557619D01*
X149455238Y-82605238D01*
X149407619Y-82700476D01*
X149407619Y-82843333D01*
X149455238Y-82938571D01*
X149502857Y-82986190D01*
X149407619Y-83605238D02*
X149455238Y-83510000D01*
X149550476Y-83462380D01*
X150407619Y-83462380D01*
X149455238Y-84367142D02*
X149407619Y-84271904D01*
X149407619Y-84081428D01*
X149455238Y-83986190D01*
X149550476Y-83938571D01*
X149931428Y-83938571D01*
X150026666Y-83986190D01*
X150074285Y-84081428D01*
X150074285Y-84271904D01*
X150026666Y-84367142D01*
X149931428Y-84414761D01*
X149836190Y-84414761D01*
X149740952Y-83938571D01*
%TO.C,JP2*%
X152836666Y-123382380D02*
X152836666Y-124096666D01*
X152789047Y-124239523D01*
X152693809Y-124334761D01*
X152550952Y-124382380D01*
X152455714Y-124382380D01*
X153312857Y-124382380D02*
X153312857Y-123382380D01*
X153693809Y-123382380D01*
X153789047Y-123430000D01*
X153836666Y-123477619D01*
X153884285Y-123572857D01*
X153884285Y-123715714D01*
X153836666Y-123810952D01*
X153789047Y-123858571D01*
X153693809Y-123906190D01*
X153312857Y-123906190D01*
X154265238Y-123477619D02*
X154312857Y-123430000D01*
X154408095Y-123382380D01*
X154646190Y-123382380D01*
X154741428Y-123430000D01*
X154789047Y-123477619D01*
X154836666Y-123572857D01*
X154836666Y-123668095D01*
X154789047Y-123810952D01*
X154217619Y-124382380D01*
X154836666Y-124382380D01*
X146384285Y-127082380D02*
X146717619Y-128082380D01*
X147050952Y-127082380D01*
X147384285Y-127082380D02*
X147384285Y-127891904D01*
X147431904Y-127987142D01*
X147479523Y-128034761D01*
X147574761Y-128082380D01*
X147765238Y-128082380D01*
X147860476Y-128034761D01*
X147908095Y-127987142D01*
X147955714Y-127891904D01*
X147955714Y-127082380D01*
X148384285Y-128034761D02*
X148527142Y-128082380D01*
X148765238Y-128082380D01*
X148860476Y-128034761D01*
X148908095Y-127987142D01*
X148955714Y-127891904D01*
X148955714Y-127796666D01*
X148908095Y-127701428D01*
X148860476Y-127653809D01*
X148765238Y-127606190D01*
X148574761Y-127558571D01*
X148479523Y-127510952D01*
X148431904Y-127463333D01*
X148384285Y-127368095D01*
X148384285Y-127272857D01*
X148431904Y-127177619D01*
X148479523Y-127130000D01*
X148574761Y-127082380D01*
X148812857Y-127082380D01*
X148955714Y-127130000D01*
X149717619Y-127558571D02*
X149860476Y-127606190D01*
X149908095Y-127653809D01*
X149955714Y-127749047D01*
X149955714Y-127891904D01*
X149908095Y-127987142D01*
X149860476Y-128034761D01*
X149765238Y-128082380D01*
X149384285Y-128082380D01*
X149384285Y-127082380D01*
X149717619Y-127082380D01*
X149812857Y-127130000D01*
X149860476Y-127177619D01*
X149908095Y-127272857D01*
X149908095Y-127368095D01*
X149860476Y-127463333D01*
X149812857Y-127510952D01*
X149717619Y-127558571D01*
X149384285Y-127558571D01*
X150146190Y-128177619D02*
X150908095Y-128177619D01*
X151098571Y-128034761D02*
X151241428Y-128082380D01*
X151479523Y-128082380D01*
X151574761Y-128034761D01*
X151622380Y-127987142D01*
X151670000Y-127891904D01*
X151670000Y-127796666D01*
X151622380Y-127701428D01*
X151574761Y-127653809D01*
X151479523Y-127606190D01*
X151289047Y-127558571D01*
X151193809Y-127510952D01*
X151146190Y-127463333D01*
X151098571Y-127368095D01*
X151098571Y-127272857D01*
X151146190Y-127177619D01*
X151193809Y-127130000D01*
X151289047Y-127082380D01*
X151527142Y-127082380D01*
X151670000Y-127130000D01*
X152241428Y-128082380D02*
X152146190Y-128034761D01*
X152098571Y-127987142D01*
X152050952Y-127891904D01*
X152050952Y-127606190D01*
X152098571Y-127510952D01*
X152146190Y-127463333D01*
X152241428Y-127415714D01*
X152384285Y-127415714D01*
X152479523Y-127463333D01*
X152527142Y-127510952D01*
X152574761Y-127606190D01*
X152574761Y-127891904D01*
X152527142Y-127987142D01*
X152479523Y-128034761D01*
X152384285Y-128082380D01*
X152241428Y-128082380D01*
X153146190Y-128082380D02*
X153050952Y-128034761D01*
X153003333Y-127939523D01*
X153003333Y-127082380D01*
X153955714Y-128082380D02*
X153955714Y-127082380D01*
X153955714Y-128034761D02*
X153860476Y-128082380D01*
X153670000Y-128082380D01*
X153574761Y-128034761D01*
X153527142Y-127987142D01*
X153479523Y-127891904D01*
X153479523Y-127606190D01*
X153527142Y-127510952D01*
X153574761Y-127463333D01*
X153670000Y-127415714D01*
X153860476Y-127415714D01*
X153955714Y-127463333D01*
X154812857Y-128034761D02*
X154717619Y-128082380D01*
X154527142Y-128082380D01*
X154431904Y-128034761D01*
X154384285Y-127939523D01*
X154384285Y-127558571D01*
X154431904Y-127463333D01*
X154527142Y-127415714D01*
X154717619Y-127415714D01*
X154812857Y-127463333D01*
X154860476Y-127558571D01*
X154860476Y-127653809D01*
X154384285Y-127749047D01*
X155289047Y-128082380D02*
X155289047Y-127415714D01*
X155289047Y-127606190D02*
X155336666Y-127510952D01*
X155384285Y-127463333D01*
X155479523Y-127415714D01*
X155574761Y-127415714D01*
X156193809Y-127082380D02*
X156193809Y-127796666D01*
X156146190Y-127939523D01*
X156050952Y-128034761D01*
X155908095Y-128082380D01*
X155812857Y-128082380D01*
X157098571Y-127415714D02*
X157098571Y-128082380D01*
X156670000Y-127415714D02*
X156670000Y-127939523D01*
X156717619Y-128034761D01*
X156812857Y-128082380D01*
X156955714Y-128082380D01*
X157050952Y-128034761D01*
X157098571Y-127987142D01*
X157574761Y-128082380D02*
X157574761Y-127415714D01*
X157574761Y-127510952D02*
X157622380Y-127463333D01*
X157717619Y-127415714D01*
X157860476Y-127415714D01*
X157955714Y-127463333D01*
X158003333Y-127558571D01*
X158003333Y-128082380D01*
X158003333Y-127558571D02*
X158050952Y-127463333D01*
X158146190Y-127415714D01*
X158289047Y-127415714D01*
X158384285Y-127463333D01*
X158431904Y-127558571D01*
X158431904Y-128082380D01*
X158908095Y-127415714D02*
X158908095Y-128415714D01*
X158908095Y-127463333D02*
X159003333Y-127415714D01*
X159193809Y-127415714D01*
X159289047Y-127463333D01*
X159336666Y-127510952D01*
X159384285Y-127606190D01*
X159384285Y-127891904D01*
X159336666Y-127987142D01*
X159289047Y-128034761D01*
X159193809Y-128082380D01*
X159003333Y-128082380D01*
X158908095Y-128034761D01*
X160193809Y-128034761D02*
X160098571Y-128082380D01*
X159908095Y-128082380D01*
X159812857Y-128034761D01*
X159765238Y-127939523D01*
X159765238Y-127558571D01*
X159812857Y-127463333D01*
X159908095Y-127415714D01*
X160098571Y-127415714D01*
X160193809Y-127463333D01*
X160241428Y-127558571D01*
X160241428Y-127653809D01*
X159765238Y-127749047D01*
X160670000Y-128082380D02*
X160670000Y-127415714D01*
X160670000Y-127606190D02*
X160717619Y-127510952D01*
X160765238Y-127463333D01*
X160860476Y-127415714D01*
X160955714Y-127415714D01*
X151355714Y-126182380D02*
X150784285Y-126182380D01*
X151070000Y-126182380D02*
X151070000Y-125182380D01*
X150974761Y-125325238D01*
X150879523Y-125420476D01*
X150784285Y-125468095D01*
X155936666Y-125182380D02*
X156555714Y-125182380D01*
X156222380Y-125563333D01*
X156365238Y-125563333D01*
X156460476Y-125610952D01*
X156508095Y-125658571D01*
X156555714Y-125753809D01*
X156555714Y-125991904D01*
X156508095Y-126087142D01*
X156460476Y-126134761D01*
X156365238Y-126182380D01*
X156079523Y-126182380D01*
X155984285Y-126134761D01*
X155936666Y-126087142D01*
%TO.C,JP1*%
X124896666Y-123382380D02*
X124896666Y-124096666D01*
X124849047Y-124239523D01*
X124753809Y-124334761D01*
X124610952Y-124382380D01*
X124515714Y-124382380D01*
X125372857Y-124382380D02*
X125372857Y-123382380D01*
X125753809Y-123382380D01*
X125849047Y-123430000D01*
X125896666Y-123477619D01*
X125944285Y-123572857D01*
X125944285Y-123715714D01*
X125896666Y-123810952D01*
X125849047Y-123858571D01*
X125753809Y-123906190D01*
X125372857Y-123906190D01*
X126896666Y-124382380D02*
X126325238Y-124382380D01*
X126610952Y-124382380D02*
X126610952Y-123382380D01*
X126515714Y-123525238D01*
X126420476Y-123620476D01*
X126325238Y-123668095D01*
X119039523Y-127082380D02*
X119658571Y-127082380D01*
X119325238Y-127463333D01*
X119468095Y-127463333D01*
X119563333Y-127510952D01*
X119610952Y-127558571D01*
X119658571Y-127653809D01*
X119658571Y-127891904D01*
X119610952Y-127987142D01*
X119563333Y-128034761D01*
X119468095Y-128082380D01*
X119182380Y-128082380D01*
X119087142Y-128034761D01*
X119039523Y-127987142D01*
X119944285Y-127082380D02*
X120277619Y-128082380D01*
X120610952Y-127082380D01*
X120849047Y-127082380D02*
X121468095Y-127082380D01*
X121134761Y-127463333D01*
X121277619Y-127463333D01*
X121372857Y-127510952D01*
X121420476Y-127558571D01*
X121468095Y-127653809D01*
X121468095Y-127891904D01*
X121420476Y-127987142D01*
X121372857Y-128034761D01*
X121277619Y-128082380D01*
X120991904Y-128082380D01*
X120896666Y-128034761D01*
X120849047Y-127987142D01*
X121658571Y-128177619D02*
X122420476Y-128177619D01*
X122610952Y-128034761D02*
X122753809Y-128082380D01*
X122991904Y-128082380D01*
X123087142Y-128034761D01*
X123134761Y-127987142D01*
X123182380Y-127891904D01*
X123182380Y-127796666D01*
X123134761Y-127701428D01*
X123087142Y-127653809D01*
X122991904Y-127606190D01*
X122801428Y-127558571D01*
X122706190Y-127510952D01*
X122658571Y-127463333D01*
X122610952Y-127368095D01*
X122610952Y-127272857D01*
X122658571Y-127177619D01*
X122706190Y-127130000D01*
X122801428Y-127082380D01*
X123039523Y-127082380D01*
X123182380Y-127130000D01*
X123753809Y-128082380D02*
X123658571Y-128034761D01*
X123610952Y-127987142D01*
X123563333Y-127891904D01*
X123563333Y-127606190D01*
X123610952Y-127510952D01*
X123658571Y-127463333D01*
X123753809Y-127415714D01*
X123896666Y-127415714D01*
X123991904Y-127463333D01*
X124039523Y-127510952D01*
X124087142Y-127606190D01*
X124087142Y-127891904D01*
X124039523Y-127987142D01*
X123991904Y-128034761D01*
X123896666Y-128082380D01*
X123753809Y-128082380D01*
X124658571Y-128082380D02*
X124563333Y-128034761D01*
X124515714Y-127939523D01*
X124515714Y-127082380D01*
X125468095Y-128082380D02*
X125468095Y-127082380D01*
X125468095Y-128034761D02*
X125372857Y-128082380D01*
X125182380Y-128082380D01*
X125087142Y-128034761D01*
X125039523Y-127987142D01*
X124991904Y-127891904D01*
X124991904Y-127606190D01*
X125039523Y-127510952D01*
X125087142Y-127463333D01*
X125182380Y-127415714D01*
X125372857Y-127415714D01*
X125468095Y-127463333D01*
X126325238Y-128034761D02*
X126230000Y-128082380D01*
X126039523Y-128082380D01*
X125944285Y-128034761D01*
X125896666Y-127939523D01*
X125896666Y-127558571D01*
X125944285Y-127463333D01*
X126039523Y-127415714D01*
X126230000Y-127415714D01*
X126325238Y-127463333D01*
X126372857Y-127558571D01*
X126372857Y-127653809D01*
X125896666Y-127749047D01*
X126801428Y-128082380D02*
X126801428Y-127415714D01*
X126801428Y-127606190D02*
X126849047Y-127510952D01*
X126896666Y-127463333D01*
X126991904Y-127415714D01*
X127087142Y-127415714D01*
X127706190Y-127082380D02*
X127706190Y-127796666D01*
X127658571Y-127939523D01*
X127563333Y-128034761D01*
X127420476Y-128082380D01*
X127325238Y-128082380D01*
X128610952Y-127415714D02*
X128610952Y-128082380D01*
X128182380Y-127415714D02*
X128182380Y-127939523D01*
X128230000Y-128034761D01*
X128325238Y-128082380D01*
X128468095Y-128082380D01*
X128563333Y-128034761D01*
X128610952Y-127987142D01*
X129087142Y-128082380D02*
X129087142Y-127415714D01*
X129087142Y-127510952D02*
X129134761Y-127463333D01*
X129230000Y-127415714D01*
X129372857Y-127415714D01*
X129468095Y-127463333D01*
X129515714Y-127558571D01*
X129515714Y-128082380D01*
X129515714Y-127558571D02*
X129563333Y-127463333D01*
X129658571Y-127415714D01*
X129801428Y-127415714D01*
X129896666Y-127463333D01*
X129944285Y-127558571D01*
X129944285Y-128082380D01*
X130420476Y-127415714D02*
X130420476Y-128415714D01*
X130420476Y-127463333D02*
X130515714Y-127415714D01*
X130706190Y-127415714D01*
X130801428Y-127463333D01*
X130849047Y-127510952D01*
X130896666Y-127606190D01*
X130896666Y-127891904D01*
X130849047Y-127987142D01*
X130801428Y-128034761D01*
X130706190Y-128082380D01*
X130515714Y-128082380D01*
X130420476Y-128034761D01*
X131706190Y-128034761D02*
X131610952Y-128082380D01*
X131420476Y-128082380D01*
X131325238Y-128034761D01*
X131277619Y-127939523D01*
X131277619Y-127558571D01*
X131325238Y-127463333D01*
X131420476Y-127415714D01*
X131610952Y-127415714D01*
X131706190Y-127463333D01*
X131753809Y-127558571D01*
X131753809Y-127653809D01*
X131277619Y-127749047D01*
X132182380Y-128082380D02*
X132182380Y-127415714D01*
X132182380Y-127606190D02*
X132230000Y-127510952D01*
X132277619Y-127463333D01*
X132372857Y-127415714D01*
X132468095Y-127415714D01*
X123415714Y-126182380D02*
X122844285Y-126182380D01*
X123130000Y-126182380D02*
X123130000Y-125182380D01*
X123034761Y-125325238D01*
X122939523Y-125420476D01*
X122844285Y-125468095D01*
X127996666Y-125182380D02*
X128615714Y-125182380D01*
X128282380Y-125563333D01*
X128425238Y-125563333D01*
X128520476Y-125610952D01*
X128568095Y-125658571D01*
X128615714Y-125753809D01*
X128615714Y-125991904D01*
X128568095Y-126087142D01*
X128520476Y-126134761D01*
X128425238Y-126182380D01*
X128139523Y-126182380D01*
X128044285Y-126134761D01*
X127996666Y-126087142D01*
%TO.C,Arduino_Nano_33*%
X133509523Y-123356666D02*
X133985714Y-123356666D01*
X133414285Y-123642380D02*
X133747619Y-122642380D01*
X134080952Y-123642380D01*
X134414285Y-123642380D02*
X134414285Y-122975714D01*
X134414285Y-123166190D02*
X134461904Y-123070952D01*
X134509523Y-123023333D01*
X134604761Y-122975714D01*
X134700000Y-122975714D01*
X135461904Y-123642380D02*
X135461904Y-122642380D01*
X135461904Y-123594761D02*
X135366666Y-123642380D01*
X135176190Y-123642380D01*
X135080952Y-123594761D01*
X135033333Y-123547142D01*
X134985714Y-123451904D01*
X134985714Y-123166190D01*
X135033333Y-123070952D01*
X135080952Y-123023333D01*
X135176190Y-122975714D01*
X135366666Y-122975714D01*
X135461904Y-123023333D01*
X136366666Y-122975714D02*
X136366666Y-123642380D01*
X135938095Y-122975714D02*
X135938095Y-123499523D01*
X135985714Y-123594761D01*
X136080952Y-123642380D01*
X136223809Y-123642380D01*
X136319047Y-123594761D01*
X136366666Y-123547142D01*
X136842857Y-123642380D02*
X136842857Y-122975714D01*
X136842857Y-122642380D02*
X136795238Y-122690000D01*
X136842857Y-122737619D01*
X136890476Y-122690000D01*
X136842857Y-122642380D01*
X136842857Y-122737619D01*
X137319047Y-122975714D02*
X137319047Y-123642380D01*
X137319047Y-123070952D02*
X137366666Y-123023333D01*
X137461904Y-122975714D01*
X137604761Y-122975714D01*
X137700000Y-123023333D01*
X137747619Y-123118571D01*
X137747619Y-123642380D01*
X138366666Y-123642380D02*
X138271428Y-123594761D01*
X138223809Y-123547142D01*
X138176190Y-123451904D01*
X138176190Y-123166190D01*
X138223809Y-123070952D01*
X138271428Y-123023333D01*
X138366666Y-122975714D01*
X138509523Y-122975714D01*
X138604761Y-123023333D01*
X138652380Y-123070952D01*
X138700000Y-123166190D01*
X138700000Y-123451904D01*
X138652380Y-123547142D01*
X138604761Y-123594761D01*
X138509523Y-123642380D01*
X138366666Y-123642380D01*
X138890476Y-123737619D02*
X139652380Y-123737619D01*
X139890476Y-123642380D02*
X139890476Y-122642380D01*
X140461904Y-123642380D01*
X140461904Y-122642380D01*
X141366666Y-123642380D02*
X141366666Y-123118571D01*
X141319047Y-123023333D01*
X141223809Y-122975714D01*
X141033333Y-122975714D01*
X140938095Y-123023333D01*
X141366666Y-123594761D02*
X141271428Y-123642380D01*
X141033333Y-123642380D01*
X140938095Y-123594761D01*
X140890476Y-123499523D01*
X140890476Y-123404285D01*
X140938095Y-123309047D01*
X141033333Y-123261428D01*
X141271428Y-123261428D01*
X141366666Y-123213809D01*
X141842857Y-122975714D02*
X141842857Y-123642380D01*
X141842857Y-123070952D02*
X141890476Y-123023333D01*
X141985714Y-122975714D01*
X142128571Y-122975714D01*
X142223809Y-123023333D01*
X142271428Y-123118571D01*
X142271428Y-123642380D01*
X142890476Y-123642380D02*
X142795238Y-123594761D01*
X142747619Y-123547142D01*
X142700000Y-123451904D01*
X142700000Y-123166190D01*
X142747619Y-123070952D01*
X142795238Y-123023333D01*
X142890476Y-122975714D01*
X143033333Y-122975714D01*
X143128571Y-123023333D01*
X143176190Y-123070952D01*
X143223809Y-123166190D01*
X143223809Y-123451904D01*
X143176190Y-123547142D01*
X143128571Y-123594761D01*
X143033333Y-123642380D01*
X142890476Y-123642380D01*
X143414285Y-123737619D02*
X144176190Y-123737619D01*
X144319047Y-122642380D02*
X144938095Y-122642380D01*
X144604761Y-123023333D01*
X144747619Y-123023333D01*
X144842857Y-123070952D01*
X144890476Y-123118571D01*
X144938095Y-123213809D01*
X144938095Y-123451904D01*
X144890476Y-123547142D01*
X144842857Y-123594761D01*
X144747619Y-123642380D01*
X144461904Y-123642380D01*
X144366666Y-123594761D01*
X144319047Y-123547142D01*
X145271428Y-122642380D02*
X145890476Y-122642380D01*
X145557142Y-123023333D01*
X145700000Y-123023333D01*
X145795238Y-123070952D01*
X145842857Y-123118571D01*
X145890476Y-123213809D01*
X145890476Y-123451904D01*
X145842857Y-123547142D01*
X145795238Y-123594761D01*
X145700000Y-123642380D01*
X145414285Y-123642380D01*
X145319047Y-123594761D01*
X145271428Y-123547142D01*
%TO.C,C1*%
X149109637Y-69797142D02*
X149062018Y-69844761D01*
X148919161Y-69892380D01*
X148823923Y-69892380D01*
X148681065Y-69844761D01*
X148585827Y-69749523D01*
X148538208Y-69654285D01*
X148490589Y-69463809D01*
X148490589Y-69320952D01*
X148538208Y-69130476D01*
X148585827Y-69035238D01*
X148681065Y-68940000D01*
X148823923Y-68892380D01*
X148919161Y-68892380D01*
X149062018Y-68940000D01*
X149109637Y-68987619D01*
X150062018Y-69892380D02*
X149490589Y-69892380D01*
X149776304Y-69892380D02*
X149776304Y-68892380D01*
X149681065Y-69035238D01*
X149585827Y-69130476D01*
X149490589Y-69178095D01*
%TO.C,C2*%
X162625833Y-69034192D02*
X162578214Y-69081811D01*
X162435357Y-69129430D01*
X162340119Y-69129430D01*
X162197261Y-69081811D01*
X162102023Y-68986573D01*
X162054404Y-68891335D01*
X162006785Y-68700859D01*
X162006785Y-68558002D01*
X162054404Y-68367526D01*
X162102023Y-68272288D01*
X162197261Y-68177050D01*
X162340119Y-68129430D01*
X162435357Y-68129430D01*
X162578214Y-68177050D01*
X162625833Y-68224669D01*
X163006785Y-68224669D02*
X163054404Y-68177050D01*
X163149642Y-68129430D01*
X163387738Y-68129430D01*
X163482976Y-68177050D01*
X163530595Y-68224669D01*
X163578214Y-68319907D01*
X163578214Y-68415145D01*
X163530595Y-68558002D01*
X162959166Y-69129430D01*
X163578214Y-69129430D01*
%TO.C,C3*%
X175182588Y-85290838D02*
X175134969Y-85338457D01*
X174992112Y-85386076D01*
X174896874Y-85386076D01*
X174754016Y-85338457D01*
X174658778Y-85243219D01*
X174611159Y-85147981D01*
X174563540Y-84957505D01*
X174563540Y-84814648D01*
X174611159Y-84624172D01*
X174658778Y-84528934D01*
X174754016Y-84433696D01*
X174896874Y-84386076D01*
X174992112Y-84386076D01*
X175134969Y-84433696D01*
X175182588Y-84481315D01*
X175515921Y-84386076D02*
X176134969Y-84386076D01*
X175801635Y-84767029D01*
X175944493Y-84767029D01*
X176039731Y-84814648D01*
X176087350Y-84862267D01*
X176134969Y-84957505D01*
X176134969Y-85195600D01*
X176087350Y-85290838D01*
X176039731Y-85338457D01*
X175944493Y-85386076D01*
X175658778Y-85386076D01*
X175563540Y-85338457D01*
X175515921Y-85290838D01*
%TO.C,C4*%
X175272588Y-104773446D02*
X175224969Y-104821065D01*
X175082112Y-104868684D01*
X174986874Y-104868684D01*
X174844016Y-104821065D01*
X174748778Y-104725827D01*
X174701159Y-104630589D01*
X174653540Y-104440113D01*
X174653540Y-104297256D01*
X174701159Y-104106780D01*
X174748778Y-104011542D01*
X174844016Y-103916304D01*
X174986874Y-103868684D01*
X175082112Y-103868684D01*
X175224969Y-103916304D01*
X175272588Y-103963923D01*
X176129731Y-104202018D02*
X176129731Y-104868684D01*
X175891635Y-103821065D02*
X175653540Y-104535351D01*
X176272588Y-104535351D01*
%TO.C,C5*%
X165606283Y-121030092D02*
X165558664Y-121077711D01*
X165415807Y-121125330D01*
X165320569Y-121125330D01*
X165177711Y-121077711D01*
X165082473Y-120982473D01*
X165034854Y-120887235D01*
X164987235Y-120696759D01*
X164987235Y-120553902D01*
X165034854Y-120363426D01*
X165082473Y-120268188D01*
X165177711Y-120172950D01*
X165320569Y-120125330D01*
X165415807Y-120125330D01*
X165558664Y-120172950D01*
X165606283Y-120220569D01*
X166511045Y-120125330D02*
X166034854Y-120125330D01*
X165987235Y-120601521D01*
X166034854Y-120553902D01*
X166130092Y-120506283D01*
X166368188Y-120506283D01*
X166463426Y-120553902D01*
X166511045Y-120601521D01*
X166558664Y-120696759D01*
X166558664Y-120934854D01*
X166511045Y-121030092D01*
X166463426Y-121077711D01*
X166368188Y-121125330D01*
X166130092Y-121125330D01*
X166034854Y-121077711D01*
X165987235Y-121030092D01*
%TO.C,C6*%
X149019637Y-130606397D02*
X148972018Y-130654016D01*
X148829161Y-130701635D01*
X148733923Y-130701635D01*
X148591065Y-130654016D01*
X148495827Y-130558778D01*
X148448208Y-130463540D01*
X148400589Y-130273064D01*
X148400589Y-130130207D01*
X148448208Y-129939731D01*
X148495827Y-129844493D01*
X148591065Y-129749255D01*
X148733923Y-129701635D01*
X148829161Y-129701635D01*
X148972018Y-129749255D01*
X149019637Y-129796874D01*
X149876780Y-129701635D02*
X149686304Y-129701635D01*
X149591065Y-129749255D01*
X149543446Y-129796874D01*
X149448208Y-129939731D01*
X149400589Y-130130207D01*
X149400589Y-130511159D01*
X149448208Y-130606397D01*
X149495827Y-130654016D01*
X149591065Y-130701635D01*
X149781542Y-130701635D01*
X149876780Y-130654016D01*
X149924399Y-130606397D01*
X149972018Y-130511159D01*
X149972018Y-130273064D01*
X149924399Y-130177826D01*
X149876780Y-130130207D01*
X149781542Y-130082588D01*
X149591065Y-130082588D01*
X149495827Y-130130207D01*
X149448208Y-130177826D01*
X149400589Y-130273064D01*
%TO.C,C7*%
X129671708Y-130643470D02*
X129624089Y-130691089D01*
X129481232Y-130738708D01*
X129385994Y-130738708D01*
X129243136Y-130691089D01*
X129147898Y-130595851D01*
X129100279Y-130500613D01*
X129052660Y-130310137D01*
X129052660Y-130167280D01*
X129100279Y-129976804D01*
X129147898Y-129881566D01*
X129243136Y-129786328D01*
X129385994Y-129738708D01*
X129481232Y-129738708D01*
X129624089Y-129786328D01*
X129671708Y-129833947D01*
X130005041Y-129738708D02*
X130671708Y-129738708D01*
X130243136Y-130738708D01*
%TO.C,C8*%
X113370383Y-121360092D02*
X113322764Y-121407711D01*
X113179907Y-121455330D01*
X113084669Y-121455330D01*
X112941811Y-121407711D01*
X112846573Y-121312473D01*
X112798954Y-121217235D01*
X112751335Y-121026759D01*
X112751335Y-120883902D01*
X112798954Y-120693426D01*
X112846573Y-120598188D01*
X112941811Y-120502950D01*
X113084669Y-120455330D01*
X113179907Y-120455330D01*
X113322764Y-120502950D01*
X113370383Y-120550569D01*
X113941811Y-120883902D02*
X113846573Y-120836283D01*
X113798954Y-120788664D01*
X113751335Y-120693426D01*
X113751335Y-120645807D01*
X113798954Y-120550569D01*
X113846573Y-120502950D01*
X113941811Y-120455330D01*
X114132288Y-120455330D01*
X114227526Y-120502950D01*
X114275145Y-120550569D01*
X114322764Y-120645807D01*
X114322764Y-120693426D01*
X114275145Y-120788664D01*
X114227526Y-120836283D01*
X114132288Y-120883902D01*
X113941811Y-120883902D01*
X113846573Y-120931521D01*
X113798954Y-120979140D01*
X113751335Y-121074378D01*
X113751335Y-121264854D01*
X113798954Y-121360092D01*
X113846573Y-121407711D01*
X113941811Y-121455330D01*
X114132288Y-121455330D01*
X114227526Y-121407711D01*
X114275145Y-121360092D01*
X114322764Y-121264854D01*
X114322764Y-121074378D01*
X114275145Y-120979140D01*
X114227526Y-120931521D01*
X114132288Y-120883902D01*
%TO.C,C9*%
X103936578Y-104443446D02*
X103888959Y-104491065D01*
X103746102Y-104538684D01*
X103650864Y-104538684D01*
X103508006Y-104491065D01*
X103412768Y-104395827D01*
X103365149Y-104300589D01*
X103317530Y-104110113D01*
X103317530Y-103967256D01*
X103365149Y-103776780D01*
X103412768Y-103681542D01*
X103508006Y-103586304D01*
X103650864Y-103538684D01*
X103746102Y-103538684D01*
X103888959Y-103586304D01*
X103936578Y-103633923D01*
X104412768Y-104538684D02*
X104603245Y-104538684D01*
X104698483Y-104491065D01*
X104746102Y-104443446D01*
X104841340Y-104300589D01*
X104888959Y-104110113D01*
X104888959Y-103729161D01*
X104841340Y-103633923D01*
X104793721Y-103586304D01*
X104698483Y-103538684D01*
X104508006Y-103538684D01*
X104412768Y-103586304D01*
X104365149Y-103633923D01*
X104317530Y-103729161D01*
X104317530Y-103967256D01*
X104365149Y-104062494D01*
X104412768Y-104110113D01*
X104508006Y-104157732D01*
X104698483Y-104157732D01*
X104793721Y-104110113D01*
X104841340Y-104062494D01*
X104888959Y-103967256D01*
%TO.C,C10*%
X103227887Y-85290838D02*
X103180268Y-85338457D01*
X103037411Y-85386076D01*
X102942173Y-85386076D01*
X102799316Y-85338457D01*
X102704078Y-85243219D01*
X102656459Y-85147981D01*
X102608840Y-84957505D01*
X102608840Y-84814648D01*
X102656459Y-84624172D01*
X102704078Y-84528934D01*
X102799316Y-84433696D01*
X102942173Y-84386076D01*
X103037411Y-84386076D01*
X103180268Y-84433696D01*
X103227887Y-84481315D01*
X104180268Y-85386076D02*
X103608840Y-85386076D01*
X103894554Y-85386076D02*
X103894554Y-84386076D01*
X103799316Y-84528934D01*
X103704078Y-84624172D01*
X103608840Y-84671791D01*
X104799316Y-84386076D02*
X104894554Y-84386076D01*
X104989792Y-84433696D01*
X105037411Y-84481315D01*
X105085030Y-84576553D01*
X105132649Y-84767029D01*
X105132649Y-85005124D01*
X105085030Y-85195600D01*
X105037411Y-85290838D01*
X104989792Y-85338457D01*
X104894554Y-85386076D01*
X104799316Y-85386076D01*
X104704078Y-85338457D01*
X104656459Y-85290838D01*
X104608840Y-85195600D01*
X104561221Y-85005124D01*
X104561221Y-84767029D01*
X104608840Y-84576553D01*
X104656459Y-84481315D01*
X104704078Y-84433696D01*
X104799316Y-84386076D01*
%TO.C,C11*%
X116429642Y-68527142D02*
X116382023Y-68574761D01*
X116239166Y-68622380D01*
X116143928Y-68622380D01*
X116001071Y-68574761D01*
X115905833Y-68479523D01*
X115858214Y-68384285D01*
X115810595Y-68193809D01*
X115810595Y-68050952D01*
X115858214Y-67860476D01*
X115905833Y-67765238D01*
X116001071Y-67670000D01*
X116143928Y-67622380D01*
X116239166Y-67622380D01*
X116382023Y-67670000D01*
X116429642Y-67717619D01*
X117382023Y-68622380D02*
X116810595Y-68622380D01*
X117096309Y-68622380D02*
X117096309Y-67622380D01*
X117001071Y-67765238D01*
X116905833Y-67860476D01*
X116810595Y-67908095D01*
X118334404Y-68622380D02*
X117762976Y-68622380D01*
X118048690Y-68622380D02*
X118048690Y-67622380D01*
X117953452Y-67765238D01*
X117858214Y-67860476D01*
X117762976Y-67908095D01*
%TO.C,C12*%
X129480838Y-69797142D02*
X129433219Y-69844761D01*
X129290362Y-69892380D01*
X129195124Y-69892380D01*
X129052267Y-69844761D01*
X128957029Y-69749523D01*
X128909410Y-69654285D01*
X128861791Y-69463809D01*
X128861791Y-69320952D01*
X128909410Y-69130476D01*
X128957029Y-69035238D01*
X129052267Y-68940000D01*
X129195124Y-68892380D01*
X129290362Y-68892380D01*
X129433219Y-68940000D01*
X129480838Y-68987619D01*
X130433219Y-69892380D02*
X129861791Y-69892380D01*
X130147505Y-69892380D02*
X130147505Y-68892380D01*
X130052267Y-69035238D01*
X129957029Y-69130476D01*
X129861791Y-69178095D01*
X130814172Y-68987619D02*
X130861791Y-68940000D01*
X130957029Y-68892380D01*
X131195124Y-68892380D01*
X131290362Y-68940000D01*
X131337981Y-68987619D01*
X131385600Y-69082857D01*
X131385600Y-69178095D01*
X131337981Y-69320952D01*
X130766553Y-69892380D01*
X131385600Y-69892380D01*
%TO.C,C13*%
X159377142Y-88847142D02*
X159329523Y-88894761D01*
X159186666Y-88942380D01*
X159091428Y-88942380D01*
X158948571Y-88894761D01*
X158853333Y-88799523D01*
X158805714Y-88704285D01*
X158758095Y-88513809D01*
X158758095Y-88370952D01*
X158805714Y-88180476D01*
X158853333Y-88085238D01*
X158948571Y-87990000D01*
X159091428Y-87942380D01*
X159186666Y-87942380D01*
X159329523Y-87990000D01*
X159377142Y-88037619D01*
X160329523Y-88942380D02*
X159758095Y-88942380D01*
X160043809Y-88942380D02*
X160043809Y-87942380D01*
X159948571Y-88085238D01*
X159853333Y-88180476D01*
X159758095Y-88228095D01*
X160662857Y-87942380D02*
X161281904Y-87942380D01*
X160948571Y-88323333D01*
X161091428Y-88323333D01*
X161186666Y-88370952D01*
X161234285Y-88418571D01*
X161281904Y-88513809D01*
X161281904Y-88751904D01*
X161234285Y-88847142D01*
X161186666Y-88894761D01*
X161091428Y-88942380D01*
X160805714Y-88942380D01*
X160710476Y-88894761D01*
X160662857Y-88847142D01*
%TO.C,C14*%
X156837142Y-96467142D02*
X156789523Y-96514761D01*
X156646666Y-96562380D01*
X156551428Y-96562380D01*
X156408571Y-96514761D01*
X156313333Y-96419523D01*
X156265714Y-96324285D01*
X156218095Y-96133809D01*
X156218095Y-95990952D01*
X156265714Y-95800476D01*
X156313333Y-95705238D01*
X156408571Y-95610000D01*
X156551428Y-95562380D01*
X156646666Y-95562380D01*
X156789523Y-95610000D01*
X156837142Y-95657619D01*
X157789523Y-96562380D02*
X157218095Y-96562380D01*
X157503809Y-96562380D02*
X157503809Y-95562380D01*
X157408571Y-95705238D01*
X157313333Y-95800476D01*
X157218095Y-95848095D01*
X158646666Y-95895714D02*
X158646666Y-96562380D01*
X158408571Y-95514761D02*
X158170476Y-96229047D01*
X158789523Y-96229047D01*
%TO.C,C15*%
X161917142Y-96467142D02*
X161869523Y-96514761D01*
X161726666Y-96562380D01*
X161631428Y-96562380D01*
X161488571Y-96514761D01*
X161393333Y-96419523D01*
X161345714Y-96324285D01*
X161298095Y-96133809D01*
X161298095Y-95990952D01*
X161345714Y-95800476D01*
X161393333Y-95705238D01*
X161488571Y-95610000D01*
X161631428Y-95562380D01*
X161726666Y-95562380D01*
X161869523Y-95610000D01*
X161917142Y-95657619D01*
X162869523Y-96562380D02*
X162298095Y-96562380D01*
X162583809Y-96562380D02*
X162583809Y-95562380D01*
X162488571Y-95705238D01*
X162393333Y-95800476D01*
X162298095Y-95848095D01*
X163774285Y-95562380D02*
X163298095Y-95562380D01*
X163250476Y-96038571D01*
X163298095Y-95990952D01*
X163393333Y-95943333D01*
X163631428Y-95943333D01*
X163726666Y-95990952D01*
X163774285Y-96038571D01*
X163821904Y-96133809D01*
X163821904Y-96371904D01*
X163774285Y-96467142D01*
X163726666Y-96514761D01*
X163631428Y-96562380D01*
X163393333Y-96562380D01*
X163298095Y-96514761D01*
X163250476Y-96467142D01*
%TO.C,C16*%
X139057142Y-134567142D02*
X139009523Y-134614761D01*
X138866666Y-134662380D01*
X138771428Y-134662380D01*
X138628571Y-134614761D01*
X138533333Y-134519523D01*
X138485714Y-134424285D01*
X138438095Y-134233809D01*
X138438095Y-134090952D01*
X138485714Y-133900476D01*
X138533333Y-133805238D01*
X138628571Y-133710000D01*
X138771428Y-133662380D01*
X138866666Y-133662380D01*
X139009523Y-133710000D01*
X139057142Y-133757619D01*
X140009523Y-134662380D02*
X139438095Y-134662380D01*
X139723809Y-134662380D02*
X139723809Y-133662380D01*
X139628571Y-133805238D01*
X139533333Y-133900476D01*
X139438095Y-133948095D01*
X140866666Y-133662380D02*
X140676190Y-133662380D01*
X140580952Y-133710000D01*
X140533333Y-133757619D01*
X140438095Y-133900476D01*
X140390476Y-134090952D01*
X140390476Y-134471904D01*
X140438095Y-134567142D01*
X140485714Y-134614761D01*
X140580952Y-134662380D01*
X140771428Y-134662380D01*
X140866666Y-134614761D01*
X140914285Y-134567142D01*
X140961904Y-134471904D01*
X140961904Y-134233809D01*
X140914285Y-134138571D01*
X140866666Y-134090952D01*
X140771428Y-134043333D01*
X140580952Y-134043333D01*
X140485714Y-134090952D01*
X140438095Y-134138571D01*
X140390476Y-134233809D01*
%TO.C,D1*%
X148538208Y-62813125D02*
X148538208Y-61813125D01*
X148776304Y-61813125D01*
X148919161Y-61860745D01*
X149014399Y-61955983D01*
X149062018Y-62051221D01*
X149109637Y-62241697D01*
X149109637Y-62384554D01*
X149062018Y-62575030D01*
X149014399Y-62670268D01*
X148919161Y-62765506D01*
X148776304Y-62813125D01*
X148538208Y-62813125D01*
X150062018Y-62813125D02*
X149490589Y-62813125D01*
X149776304Y-62813125D02*
X149776304Y-61813125D01*
X149681065Y-61955983D01*
X149585827Y-62051221D01*
X149490589Y-62098840D01*
X145412018Y-64713125D02*
X144840589Y-64713125D01*
X145126304Y-64713125D02*
X145126304Y-63713125D01*
X145031065Y-63855983D01*
X144935827Y-63951221D01*
X144840589Y-63998840D01*
%TO.C,D2*%
X165124854Y-72389430D02*
X165124854Y-71389430D01*
X165362950Y-71389430D01*
X165505807Y-71437050D01*
X165601045Y-71532288D01*
X165648664Y-71627526D01*
X165696283Y-71818002D01*
X165696283Y-71960859D01*
X165648664Y-72151335D01*
X165601045Y-72246573D01*
X165505807Y-72341811D01*
X165362950Y-72389430D01*
X165124854Y-72389430D01*
X166077235Y-71484669D02*
X166124854Y-71437050D01*
X166220092Y-71389430D01*
X166458188Y-71389430D01*
X166553426Y-71437050D01*
X166601045Y-71484669D01*
X166648664Y-71579907D01*
X166648664Y-71675145D01*
X166601045Y-71818002D01*
X166029616Y-72389430D01*
X166648664Y-72389430D01*
X161998664Y-74289430D02*
X161427235Y-74289430D01*
X161712950Y-74289430D02*
X161712950Y-73289430D01*
X161617711Y-73432288D01*
X161522473Y-73527526D01*
X161427235Y-73575145D01*
%TO.C,D3*%
X174701159Y-88976076D02*
X174701159Y-87976076D01*
X174939255Y-87976076D01*
X175082112Y-88023696D01*
X175177350Y-88118934D01*
X175224969Y-88214172D01*
X175272588Y-88404648D01*
X175272588Y-88547505D01*
X175224969Y-88737981D01*
X175177350Y-88833219D01*
X175082112Y-88928457D01*
X174939255Y-88976076D01*
X174701159Y-88976076D01*
X175605921Y-87976076D02*
X176224969Y-87976076D01*
X175891635Y-88357029D01*
X176034493Y-88357029D01*
X176129731Y-88404648D01*
X176177350Y-88452267D01*
X176224969Y-88547505D01*
X176224969Y-88785600D01*
X176177350Y-88880838D01*
X176129731Y-88928457D01*
X176034493Y-88976076D01*
X175748778Y-88976076D01*
X175653540Y-88928457D01*
X175605921Y-88880838D01*
X171574969Y-90876076D02*
X171003540Y-90876076D01*
X171289255Y-90876076D02*
X171289255Y-89876076D01*
X171194016Y-90018934D01*
X171098778Y-90114172D01*
X171003540Y-90161791D01*
%TO.C,D4*%
X174701159Y-108128684D02*
X174701159Y-107128684D01*
X174939255Y-107128684D01*
X175082112Y-107176304D01*
X175177350Y-107271542D01*
X175224969Y-107366780D01*
X175272588Y-107557256D01*
X175272588Y-107700113D01*
X175224969Y-107890589D01*
X175177350Y-107985827D01*
X175082112Y-108081065D01*
X174939255Y-108128684D01*
X174701159Y-108128684D01*
X176129731Y-107462018D02*
X176129731Y-108128684D01*
X175891635Y-107081065D02*
X175653540Y-107795351D01*
X176272588Y-107795351D01*
X171574969Y-110028684D02*
X171003540Y-110028684D01*
X171289255Y-110028684D02*
X171289255Y-109028684D01*
X171194016Y-109171542D01*
X171098778Y-109266780D01*
X171003540Y-109314399D01*
%TO.C,D5*%
X165124854Y-124715330D02*
X165124854Y-123715330D01*
X165362950Y-123715330D01*
X165505807Y-123762950D01*
X165601045Y-123858188D01*
X165648664Y-123953426D01*
X165696283Y-124143902D01*
X165696283Y-124286759D01*
X165648664Y-124477235D01*
X165601045Y-124572473D01*
X165505807Y-124667711D01*
X165362950Y-124715330D01*
X165124854Y-124715330D01*
X166601045Y-123715330D02*
X166124854Y-123715330D01*
X166077235Y-124191521D01*
X166124854Y-124143902D01*
X166220092Y-124096283D01*
X166458188Y-124096283D01*
X166553426Y-124143902D01*
X166601045Y-124191521D01*
X166648664Y-124286759D01*
X166648664Y-124524854D01*
X166601045Y-124620092D01*
X166553426Y-124667711D01*
X166458188Y-124715330D01*
X166220092Y-124715330D01*
X166124854Y-124667711D01*
X166077235Y-124620092D01*
X161998664Y-126615330D02*
X161427235Y-126615330D01*
X161712950Y-126615330D02*
X161712950Y-125615330D01*
X161617711Y-125758188D01*
X161522473Y-125853426D01*
X161427235Y-125901045D01*
%TO.C,D6*%
X148538208Y-134291635D02*
X148538208Y-133291635D01*
X148776304Y-133291635D01*
X148919161Y-133339255D01*
X149014399Y-133434493D01*
X149062018Y-133529731D01*
X149109637Y-133720207D01*
X149109637Y-133863064D01*
X149062018Y-134053540D01*
X149014399Y-134148778D01*
X148919161Y-134244016D01*
X148776304Y-134291635D01*
X148538208Y-134291635D01*
X149966780Y-133291635D02*
X149776304Y-133291635D01*
X149681065Y-133339255D01*
X149633446Y-133386874D01*
X149538208Y-133529731D01*
X149490589Y-133720207D01*
X149490589Y-134101159D01*
X149538208Y-134196397D01*
X149585827Y-134244016D01*
X149681065Y-134291635D01*
X149871542Y-134291635D01*
X149966780Y-134244016D01*
X150014399Y-134196397D01*
X150062018Y-134101159D01*
X150062018Y-133863064D01*
X150014399Y-133767826D01*
X149966780Y-133720207D01*
X149871542Y-133672588D01*
X149681065Y-133672588D01*
X149585827Y-133720207D01*
X149538208Y-133767826D01*
X149490589Y-133863064D01*
X145412018Y-136191635D02*
X144840589Y-136191635D01*
X145126304Y-136191635D02*
X145126304Y-135191635D01*
X145031065Y-135334493D01*
X144935827Y-135429731D01*
X144840589Y-135477350D01*
%TO.C,D7*%
X129190279Y-134328708D02*
X129190279Y-133328708D01*
X129428375Y-133328708D01*
X129571232Y-133376328D01*
X129666470Y-133471566D01*
X129714089Y-133566804D01*
X129761708Y-133757280D01*
X129761708Y-133900137D01*
X129714089Y-134090613D01*
X129666470Y-134185851D01*
X129571232Y-134281089D01*
X129428375Y-134328708D01*
X129190279Y-134328708D01*
X130095041Y-133328708D02*
X130761708Y-133328708D01*
X130333136Y-134328708D01*
X126064089Y-136228708D02*
X125492660Y-136228708D01*
X125778375Y-136228708D02*
X125778375Y-135228708D01*
X125683136Y-135371566D01*
X125587898Y-135466804D01*
X125492660Y-135514423D01*
%TO.C,D8*%
X112798954Y-124715330D02*
X112798954Y-123715330D01*
X113037050Y-123715330D01*
X113179907Y-123762950D01*
X113275145Y-123858188D01*
X113322764Y-123953426D01*
X113370383Y-124143902D01*
X113370383Y-124286759D01*
X113322764Y-124477235D01*
X113275145Y-124572473D01*
X113179907Y-124667711D01*
X113037050Y-124715330D01*
X112798954Y-124715330D01*
X113941811Y-124143902D02*
X113846573Y-124096283D01*
X113798954Y-124048664D01*
X113751335Y-123953426D01*
X113751335Y-123905807D01*
X113798954Y-123810569D01*
X113846573Y-123762950D01*
X113941811Y-123715330D01*
X114132288Y-123715330D01*
X114227526Y-123762950D01*
X114275145Y-123810569D01*
X114322764Y-123905807D01*
X114322764Y-123953426D01*
X114275145Y-124048664D01*
X114227526Y-124096283D01*
X114132288Y-124143902D01*
X113941811Y-124143902D01*
X113846573Y-124191521D01*
X113798954Y-124239140D01*
X113751335Y-124334378D01*
X113751335Y-124524854D01*
X113798954Y-124620092D01*
X113846573Y-124667711D01*
X113941811Y-124715330D01*
X114132288Y-124715330D01*
X114227526Y-124667711D01*
X114275145Y-124620092D01*
X114322764Y-124524854D01*
X114322764Y-124334378D01*
X114275145Y-124239140D01*
X114227526Y-124191521D01*
X114132288Y-124143902D01*
X109672764Y-126615330D02*
X109101335Y-126615330D01*
X109387050Y-126615330D02*
X109387050Y-125615330D01*
X109291811Y-125758188D01*
X109196573Y-125853426D01*
X109101335Y-125901045D01*
%TO.C,D9*%
X103222649Y-108128684D02*
X103222649Y-107128684D01*
X103460745Y-107128684D01*
X103603602Y-107176304D01*
X103698840Y-107271542D01*
X103746459Y-107366780D01*
X103794078Y-107557256D01*
X103794078Y-107700113D01*
X103746459Y-107890589D01*
X103698840Y-107985827D01*
X103603602Y-108081065D01*
X103460745Y-108128684D01*
X103222649Y-108128684D01*
X104270268Y-108128684D02*
X104460745Y-108128684D01*
X104555983Y-108081065D01*
X104603602Y-108033446D01*
X104698840Y-107890589D01*
X104746459Y-107700113D01*
X104746459Y-107319161D01*
X104698840Y-107223923D01*
X104651221Y-107176304D01*
X104555983Y-107128684D01*
X104365506Y-107128684D01*
X104270268Y-107176304D01*
X104222649Y-107223923D01*
X104175030Y-107319161D01*
X104175030Y-107557256D01*
X104222649Y-107652494D01*
X104270268Y-107700113D01*
X104365506Y-107747732D01*
X104555983Y-107747732D01*
X104651221Y-107700113D01*
X104698840Y-107652494D01*
X104746459Y-107557256D01*
X100096459Y-110028684D02*
X99525030Y-110028684D01*
X99810745Y-110028684D02*
X99810745Y-109028684D01*
X99715506Y-109171542D01*
X99620268Y-109266780D01*
X99525030Y-109314399D01*
%TO.C,D10*%
X102746459Y-88976076D02*
X102746459Y-87976076D01*
X102984554Y-87976076D01*
X103127411Y-88023696D01*
X103222649Y-88118934D01*
X103270268Y-88214172D01*
X103317887Y-88404648D01*
X103317887Y-88547505D01*
X103270268Y-88737981D01*
X103222649Y-88833219D01*
X103127411Y-88928457D01*
X102984554Y-88976076D01*
X102746459Y-88976076D01*
X104270268Y-88976076D02*
X103698840Y-88976076D01*
X103984554Y-88976076D02*
X103984554Y-87976076D01*
X103889316Y-88118934D01*
X103794078Y-88214172D01*
X103698840Y-88261791D01*
X104889316Y-87976076D02*
X104984554Y-87976076D01*
X105079792Y-88023696D01*
X105127411Y-88071315D01*
X105175030Y-88166553D01*
X105222649Y-88357029D01*
X105222649Y-88595124D01*
X105175030Y-88785600D01*
X105127411Y-88880838D01*
X105079792Y-88928457D01*
X104984554Y-88976076D01*
X104889316Y-88976076D01*
X104794078Y-88928457D01*
X104746459Y-88880838D01*
X104698840Y-88785600D01*
X104651221Y-88595124D01*
X104651221Y-88357029D01*
X104698840Y-88166553D01*
X104746459Y-88071315D01*
X104794078Y-88023696D01*
X104889316Y-87976076D01*
X100096459Y-90876076D02*
X99525030Y-90876076D01*
X99810745Y-90876076D02*
X99810745Y-89876076D01*
X99715506Y-90018934D01*
X99620268Y-90114172D01*
X99525030Y-90161791D01*
%TO.C,D11*%
X112322764Y-72389430D02*
X112322764Y-71389430D01*
X112560859Y-71389430D01*
X112703716Y-71437050D01*
X112798954Y-71532288D01*
X112846573Y-71627526D01*
X112894192Y-71818002D01*
X112894192Y-71960859D01*
X112846573Y-72151335D01*
X112798954Y-72246573D01*
X112703716Y-72341811D01*
X112560859Y-72389430D01*
X112322764Y-72389430D01*
X113846573Y-72389430D02*
X113275145Y-72389430D01*
X113560859Y-72389430D02*
X113560859Y-71389430D01*
X113465621Y-71532288D01*
X113370383Y-71627526D01*
X113275145Y-71675145D01*
X114798954Y-72389430D02*
X114227526Y-72389430D01*
X114513240Y-72389430D02*
X114513240Y-71389430D01*
X114418002Y-71532288D01*
X114322764Y-71627526D01*
X114227526Y-71675145D01*
X109672764Y-74289430D02*
X109101335Y-74289430D01*
X109387050Y-74289430D02*
X109387050Y-73289430D01*
X109291811Y-73432288D01*
X109196573Y-73527526D01*
X109101335Y-73575145D01*
%TO.C,D12*%
X128909410Y-62813125D02*
X128909410Y-61813125D01*
X129147505Y-61813125D01*
X129290362Y-61860745D01*
X129385600Y-61955983D01*
X129433219Y-62051221D01*
X129480838Y-62241697D01*
X129480838Y-62384554D01*
X129433219Y-62575030D01*
X129385600Y-62670268D01*
X129290362Y-62765506D01*
X129147505Y-62813125D01*
X128909410Y-62813125D01*
X130433219Y-62813125D02*
X129861791Y-62813125D01*
X130147505Y-62813125D02*
X130147505Y-61813125D01*
X130052267Y-61955983D01*
X129957029Y-62051221D01*
X129861791Y-62098840D01*
X130814172Y-61908364D02*
X130861791Y-61860745D01*
X130957029Y-61813125D01*
X131195124Y-61813125D01*
X131290362Y-61860745D01*
X131337981Y-61908364D01*
X131385600Y-62003602D01*
X131385600Y-62098840D01*
X131337981Y-62241697D01*
X130766553Y-62813125D01*
X131385600Y-62813125D01*
X126259410Y-64713125D02*
X125687981Y-64713125D01*
X125973696Y-64713125D02*
X125973696Y-63713125D01*
X125878457Y-63855983D01*
X125783219Y-63951221D01*
X125687981Y-63998840D01*
%TO.C,J1*%
X139366666Y-136995380D02*
X139366666Y-137709666D01*
X139319047Y-137852523D01*
X139223809Y-137947761D01*
X139080952Y-137995380D01*
X138985714Y-137995380D01*
X140366666Y-137995380D02*
X139795238Y-137995380D01*
X140080952Y-137995380D02*
X140080952Y-136995380D01*
X139985714Y-137138238D01*
X139890476Y-137233476D01*
X139795238Y-137281095D01*
%TO.C,L1*%
X152233333Y-93702380D02*
X151757142Y-93702380D01*
X151757142Y-92702380D01*
X153090476Y-93702380D02*
X152519047Y-93702380D01*
X152804761Y-93702380D02*
X152804761Y-92702380D01*
X152709523Y-92845238D01*
X152614285Y-92940476D01*
X152519047Y-92988095D01*
%TO.C,Q1*%
X121824761Y-93297619D02*
X121729523Y-93250000D01*
X121634285Y-93154761D01*
X121491428Y-93011904D01*
X121396190Y-92964285D01*
X121300952Y-92964285D01*
X121348571Y-93202380D02*
X121253333Y-93154761D01*
X121158095Y-93059523D01*
X121110476Y-92869047D01*
X121110476Y-92535714D01*
X121158095Y-92345238D01*
X121253333Y-92250000D01*
X121348571Y-92202380D01*
X121539047Y-92202380D01*
X121634285Y-92250000D01*
X121729523Y-92345238D01*
X121777142Y-92535714D01*
X121777142Y-92869047D01*
X121729523Y-93059523D01*
X121634285Y-93154761D01*
X121539047Y-93202380D01*
X121348571Y-93202380D01*
X122729523Y-93202380D02*
X122158095Y-93202380D01*
X122443809Y-93202380D02*
X122443809Y-92202380D01*
X122348571Y-92345238D01*
X122253333Y-92440476D01*
X122158095Y-92488095D01*
%TO.C,R1*%
X149963333Y-87702380D02*
X149630000Y-87226190D01*
X149391904Y-87702380D02*
X149391904Y-86702380D01*
X149772857Y-86702380D01*
X149868095Y-86750000D01*
X149915714Y-86797619D01*
X149963333Y-86892857D01*
X149963333Y-87035714D01*
X149915714Y-87130952D01*
X149868095Y-87178571D01*
X149772857Y-87226190D01*
X149391904Y-87226190D01*
X150915714Y-87702380D02*
X150344285Y-87702380D01*
X150630000Y-87702380D02*
X150630000Y-86702380D01*
X150534761Y-86845238D01*
X150439523Y-86940476D01*
X150344285Y-86988095D01*
%TO.C,R2*%
X167473333Y-92782380D02*
X167140000Y-92306190D01*
X166901904Y-92782380D02*
X166901904Y-91782380D01*
X167282857Y-91782380D01*
X167378095Y-91830000D01*
X167425714Y-91877619D01*
X167473333Y-91972857D01*
X167473333Y-92115714D01*
X167425714Y-92210952D01*
X167378095Y-92258571D01*
X167282857Y-92306190D01*
X166901904Y-92306190D01*
X167854285Y-91877619D02*
X167901904Y-91830000D01*
X167997142Y-91782380D01*
X168235238Y-91782380D01*
X168330476Y-91830000D01*
X168378095Y-91877619D01*
X168425714Y-91972857D01*
X168425714Y-92068095D01*
X168378095Y-92210952D01*
X167806666Y-92782380D01*
X168425714Y-92782380D01*
%TO.C,R3*%
X167473333Y-96592380D02*
X167140000Y-96116190D01*
X166901904Y-96592380D02*
X166901904Y-95592380D01*
X167282857Y-95592380D01*
X167378095Y-95640000D01*
X167425714Y-95687619D01*
X167473333Y-95782857D01*
X167473333Y-95925714D01*
X167425714Y-96020952D01*
X167378095Y-96068571D01*
X167282857Y-96116190D01*
X166901904Y-96116190D01*
X167806666Y-95592380D02*
X168425714Y-95592380D01*
X168092380Y-95973333D01*
X168235238Y-95973333D01*
X168330476Y-96020952D01*
X168378095Y-96068571D01*
X168425714Y-96163809D01*
X168425714Y-96401904D01*
X168378095Y-96497142D01*
X168330476Y-96544761D01*
X168235238Y-96592380D01*
X167949523Y-96592380D01*
X167854285Y-96544761D01*
X167806666Y-96497142D01*
%TO.C,R4*%
X116943333Y-92782380D02*
X116610000Y-92306190D01*
X116371904Y-92782380D02*
X116371904Y-91782380D01*
X116752857Y-91782380D01*
X116848095Y-91830000D01*
X116895714Y-91877619D01*
X116943333Y-91972857D01*
X116943333Y-92115714D01*
X116895714Y-92210952D01*
X116848095Y-92258571D01*
X116752857Y-92306190D01*
X116371904Y-92306190D01*
X117800476Y-92115714D02*
X117800476Y-92782380D01*
X117562380Y-91734761D02*
X117324285Y-92449047D01*
X117943333Y-92449047D01*
%TO.C,R5*%
X126563333Y-92782380D02*
X126230000Y-92306190D01*
X125991904Y-92782380D02*
X125991904Y-91782380D01*
X126372857Y-91782380D01*
X126468095Y-91830000D01*
X126515714Y-91877619D01*
X126563333Y-91972857D01*
X126563333Y-92115714D01*
X126515714Y-92210952D01*
X126468095Y-92258571D01*
X126372857Y-92306190D01*
X125991904Y-92306190D01*
X127468095Y-91782380D02*
X126991904Y-91782380D01*
X126944285Y-92258571D01*
X126991904Y-92210952D01*
X127087142Y-92163333D01*
X127325238Y-92163333D01*
X127420476Y-92210952D01*
X127468095Y-92258571D01*
X127515714Y-92353809D01*
X127515714Y-92591904D01*
X127468095Y-92687142D01*
X127420476Y-92734761D01*
X127325238Y-92782380D01*
X127087142Y-92782380D01*
X126991904Y-92734761D01*
X126944285Y-92687142D01*
%TO.C,VREG1*%
D11*
X157147380Y-93284523D02*
X157570714Y-94554523D01*
X157994047Y-93284523D01*
X159143095Y-94554523D02*
X158719761Y-93949761D01*
X158417380Y-94554523D02*
X158417380Y-93284523D01*
X158901190Y-93284523D01*
X159022142Y-93345000D01*
X159082619Y-93405476D01*
X159143095Y-93526428D01*
X159143095Y-93707857D01*
X159082619Y-93828809D01*
X159022142Y-93889285D01*
X158901190Y-93949761D01*
X158417380Y-93949761D01*
X159687380Y-93889285D02*
X160110714Y-93889285D01*
X160292142Y-94554523D02*
X159687380Y-94554523D01*
X159687380Y-93284523D01*
X160292142Y-93284523D01*
X161501666Y-93345000D02*
X161380714Y-93284523D01*
X161199285Y-93284523D01*
X161017857Y-93345000D01*
X160896904Y-93465952D01*
X160836428Y-93586904D01*
X160775952Y-93828809D01*
X160775952Y-94010238D01*
X160836428Y-94252142D01*
X160896904Y-94373095D01*
X161017857Y-94494047D01*
X161199285Y-94554523D01*
X161320238Y-94554523D01*
X161501666Y-94494047D01*
X161562142Y-94433571D01*
X161562142Y-94010238D01*
X161320238Y-94010238D01*
X162771666Y-94554523D02*
X162045952Y-94554523D01*
X162408809Y-94554523D02*
X162408809Y-93284523D01*
X162287857Y-93465952D01*
X162166904Y-93586904D01*
X162045952Y-93647380D01*
%TD*%
M02*
